<?xml version="1.0" encoding="utf-8"?>
<!-- Generator: Adobe Illustrator 25.4.1, SVG Export Plug-In . SVG Version: 6.00 Build 0)  -->
<svg version="1.1" id="Layer_1" xmlns="http://www.w3.org/2000/svg" xmlns:xlink="http://www.w3.org/1999/xlink" x="0px" y="0px"
	 viewBox="0 0 231 48" style="enable-background:new 0 0 231 48;" xml:space="preserve">
<style type="text/css">
	.st0{fill:#FFFFFF;}
	.st1{fill:#FFFFFF;fill-opacity:0.9;}
</style>
<g>
	<path class="st0" d="M13.1,12.6c0-1.4,1.1-2.5,2.5-2.5c1.4,0,2.5,1.1,2.5,2.5v22.7c0,1.4-1.1,2.5-2.5,2.5c-1.4,0-2.5-1.1-2.5-2.5
		V12.6z"/>
</g>
<g>
	<path shape-rendering="crispEdges" class="st1" d="M22.5,22.7c0-1.4,1.1-2.5,2.5-2.5c1.4,0,2.5,1.1,2.5,2.5v12.6
		c0,1.4-1.1,2.5-2.5,2.5c-1.4,0-2.5-1.1-2.5-2.5V22.7z"/>
</g>
<path class="st0" d="M66.4,15.2h7.6V37h4.6V15.2h7.6V11H66.4V15.2z"/>
<path class="st0" d="M91.4,37.5c2.7,0,5.1-1.2,5.9-3.1l0.3,2.6h3.8V26.3c0-4.9-2.9-7.5-7.7-7.5c-4.8,0-7.9,2.5-7.9,6.3h3.7
	c0-1.9,1.4-2.9,4-2.9c2.2,0,3.6,1,3.6,3.4V26l-5.3,0.4c-4.2,0.3-6.5,2.4-6.5,5.6C85.3,35.3,87.6,37.5,91.4,37.5z M92.8,34.2
	c-2,0-3-0.8-3-2.4c0-1.4,1-2.3,3.7-2.6l3.7-0.3v0.9C97.2,32.6,95.5,34.2,92.8,34.2z"/>
<path class="st0" d="M107.8,15.9c1.4,0,2.6-1.2,2.6-2.6c0-1.5-1.2-2.6-2.6-2.6c-1.5,0-2.7,1.1-2.7,2.6
	C105.2,14.7,106.3,15.9,107.8,15.9z M105.6,37h4.4V19.4h-4.4V37z"/>
<path class="st0" d="M118.9,37V10.5h-4.3V37H118.9z"/>
<path class="st0" d="M126.3,37l2.1-6h9.7l2.1,6h4.8L135.7,11H131L121.6,37H126.3z M132.8,18.7c0.2-0.7,0.5-1.5,0.6-2
	c0.1,0.5,0.3,1.3,0.5,2l3,8.4h-7.1L132.8,18.7z"/>
<path class="st0" d="M154.2,37.5c2.7,0,5-1.2,6-3.2l0.3,2.7h4V10.5h-4.3v11.2c-1.1-1.7-3.3-2.8-5.7-2.8c-5.3,0-8.5,3.9-8.5,9.4
	C145.9,33.8,149.1,37.5,154.2,37.5z M155.1,33.5c-3,0-4.9-2.2-4.9-5.4s1.9-5.4,4.9-5.4c3,0,5,2.2,5,5.4S158.2,33.5,155.1,33.5z"/>
<path class="st0" d="M173.4,37V27c0-2.9,1.7-4.2,3.7-4.2c2.1,0,3.4,1.3,3.4,3.8V37h4.4V27c0-2.9,1.6-4.2,3.7-4.2
	c2.1,0,3.4,1.3,3.4,3.9V37h4.3V25.5c0-4.1-2.4-6.6-6.6-6.6c-2.7,0-4.7,1.3-5.6,3.4c-0.9-2-2.8-3.4-5.5-3.4c-2.5,0-4.3,1.1-5.2,2.6
	l-0.4-2.1h-4V37H173.4z"/>
<path class="st0" d="M202.7,15.9c1.4,0,2.6-1.2,2.6-2.6c0-1.5-1.2-2.6-2.6-2.6c-1.5,0-2.7,1.1-2.7,2.6
	C200.1,14.7,201.2,15.9,202.7,15.9z M200.6,37h4.4V19.4h-4.4V37z"/>
<path class="st0" d="M213.8,37v-9.5c0-2.9,1.6-4.7,4.3-4.7c2.2,0,3.7,1.4,3.7,4.4V37h4.4V26.2c0-4.6-2.3-7.3-6.7-7.3
	c-2.4,0-4.5,1-5.6,2.8l-0.4-2.3h-4V37H213.8z"/>
<image style="overflow:visible;enable-background:new    ;" width="799" height="814" xlink:href="C:\Users\Uzer\OneDrive - Royal School of Administration\Pictures\Food Diary.png"  transform="matrix(3.535039e-02 0 0 3.535039e-02 51.4804 9.6128)">
</image>
</svg>
