<?xml version="1.0" encoding="utf-8"?>
<!-- Generator: Adobe Illustrator 25.4.1, SVG Export Plug-In . SVG Version: 6.00 Build 0)  -->
<svg version="1.1" id="Layer_1" xmlns="http://www.w3.org/2000/svg" xmlns:xlink="http://www.w3.org/1999/xlink" x="0px" y="0px"
	 viewBox="0 0 154 32" style="enable-background:new 0 0 154 32;" xml:space="preserve">
<style type="text/css">
	.st0{fill:#FFFFFF;}
	.st1{fill:#FFFFFF;fill-opacity:0.9;}
	.st2{fill:#FFFFFF;fill-opacity:0.7;}
	.st3{fill:#D65C09;}
	.st4{font-family:'Algerian';}
	.st5{font-size:21px;}
</style>
<g>
	<path class="st0" d="M8.4,8.4c0-0.9,0.8-1.7,1.7-1.7l0,0c0.9,0,1.7,0.8,1.7,1.7v15.2c0,0.9-0.8,1.7-1.7,1.7l0,0
		c-0.9,0-1.7-0.8-1.7-1.7V8.4z"/>
</g>
<g>
	<path shape-rendering="crispEdges" class="st1" d="M14.7,15.2c0-0.9,0.8-1.7,1.7-1.7l0,0c0.9,0,1.7,0.8,1.7,1.7v8.4
		c0,0.9-0.8,1.7-1.7,1.7l0,0c-0.9,0-1.7-0.8-1.7-1.7V15.2z"/>
</g>
<g>
	<path shape-rendering="crispEdges" class="st2" d="M21.1,10.9c0-0.9,0.8-1.7,1.7-1.7l0,0c0.9,0,1.7,0.8,1.7,1.7v12.6
		c0,0.9-0.8,1.7-1.7,1.7l0,0c-0.9,0-1.7-0.8-1.7-1.7V10.9z"/>
</g>
<image style="overflow:visible;enable-background:new    ;" width="799" height="814" xlink:href="C:\Users\Uzer\OneDrive - Royal School of Administration\Pictures\Food Diary.png"  transform="matrix(3.535039e-02 0 0 3.535039e-02 13.4804 1.6128)">
</image>
<text transform="matrix(1 0 0 1 48.3984 23.3599)" class="st3 st4 st5">RMS POS</text>
</svg>
