<?xml version="1.0" encoding="utf-8"?>
<!-- Generator: Adobe Illustrator 25.4.1, SVG Export Plug-In . SVG Version: 6.00 Build 0)  -->
<svg version="1.1" id="Layer_1" xmlns="http://www.w3.org/2000/svg" xmlns:xlink="http://www.w3.org/1999/xlink" x="0px" y="0px"
	 viewBox="0 0 154 32" style="enable-background:new 0 0 154 32;" xml:space="preserve">
<style type="text/css">
	.st0{fill:#E5910A;}
	.st1{font-family:'Elephant-Regular';}
	.st2{font-size:24px;}
</style>
<g>
	<path class="st0" d="M17.7,3.2c2,0.2,3.8,0.6,5.5,1.5c3.4,1.8,5.6,4.4,6.4,7.8c0.1,0.5,0.1,0.9,0.2,1.4c0,0.4,0,0.4-0.5,0.4
		c-4.3,0-8.5,0-12.8,0c-4.2,0-8.3,0-12.5,0c-0.5,0-0.5-0.1-0.5-0.5C3.8,10.7,5.3,8,7.9,6c1.8-1.4,3.8-2.2,6.2-2.6
		c0.4-0.1,0.9-0.1,1.3-0.2c0.2,0,0.2-0.1,0.2-0.3s0-0.3-0.3-0.4c-0.2,0-0.3,0-0.5,0c-0.5,0-0.7-0.3-0.7-0.7c0.2-0.8,0.7-1.3,1.5-1.5
		c1.3-0.4,2.6,0,3.2,1C19,1.5,19.1,1.8,19.1,2c0,0.3-0.2,0.6-0.6,0.6c-0.1,0-0.3,0-0.4,0c-0.3,0-0.4,0-0.4,0.3
		C17.7,3,17.7,3.1,17.7,3.2z M6.6,13c0.6,0,0.8-0.1,0.9-0.7c0.1-0.5,0.2-1,0.4-1.4c1-2.5,2.8-4.3,5.5-5.5c0.1,0,0.1,0,0.2-0.1
		c0.1-0.1,0.1-0.2,0.1-0.3c0-0.1-0.2-0.1-0.3-0.2c-0.1,0-0.2,0-0.3,0.1c-2.8,1-4.9,2.7-6.3,5c-0.4,0.8-0.7,1.6-0.9,2.4
		c-0.1,0.3,0,0.4,0.3,0.5C6.4,13,6.5,13,6.6,13z"/>
	<path class="st0" d="M13.6,28.2c-0.8,0-1.6,0-2.4,0c0-0.2,0-0.3,0-0.5c0-2.9,0-5.9,0-8.8c0-0.2,0.1-0.3,0.3-0.3c0.8,0,1.6,0,2.4,0
		c0.2,0,0.3,0.1,0.4,0.2c0.9,1.4,1.7,2.8,2.6,4.2c0,0,0,0.1,0.1,0.1c0.3-0.5,0.7-1.1,1-1.6c0.6-0.9,1.1-1.8,1.7-2.7
		c0.1-0.1,0.2-0.2,0.4-0.2c0.8,0,1.5,0,2.3,0c0.2,0,0.3,0.1,0.3,0.2c0,3,0,6.1,0,9.1c0,0.2,0,0.2-0.3,0.2c-0.7,0-1.4,0-2.1,0
		c0-2.1,0-4.1,0-6.1c0,0,0,0-0.1,0c0,0.1-0.1,0.1-0.1,0.2c-0.9,1.4-1.8,2.8-2.7,4.2c-0.2,0.3-0.6,0.3-0.8,0
		c-0.9-1.4-1.8-2.8-2.7-4.2c-0.1-0.1-0.1-0.2-0.2-0.3C13.6,24.1,13.6,26.1,13.6,28.2z"/>
	<path class="st0" d="M7.2,24.7C8.1,25.9,9,27,9.9,28.2c-0.1,0-0.2,0-0.3,0c-0.7,0-1.4,0-2.1,0c-0.3,0-0.4-0.1-0.5-0.3
		C6.3,27,5.6,26,4.9,25.1C4.7,25,4.5,25,4.4,25c-0.3,0-0.6,0-1,0c0,1.1,0,2.1,0,3.2c-0.1,0-0.2,0-0.2,0c-0.7,0-1.4,0-2,0
		c-0.2,0-0.3,0-0.3-0.2c0-3,0-6.1,0-9.1c0-0.2,0.1-0.2,0.3-0.2c1.4,0,2.8,0,4.3,0c1.2,0,2.4,0.3,3.2,1.1c0.7,0.7,1,1.5,0.9,2.4
		C9.3,23.4,8.5,24.2,7.2,24.7z M3.4,20.5c0,0.9,0,1.7,0,2.5c0,0,0.1,0.1,0.2,0.1c0.4,0,0.8,0,1.3,0c0.4,0,0.8,0,1.1-0.1
		c0.7-0.2,1-0.6,1-1.2s-0.4-1.1-1.1-1.2C5.1,20.6,4.2,20.6,3.4,20.5z"/>
	<path class="st0" d="M31.9,30.4c0,0.5-0.3,0.9-0.6,1.2c-0.5,0.4-1.2,0.5-1.9,0.5c-2,0-4,0-6.1,0c-6.4,0-12.8,0-19.2,0
		c-0.4,0-0.7,0-1.1-0.1c-0.8-0.2-1.4-0.6-1.6-1.4c0-0.1,0-0.2,0-0.3C11.6,30.4,21.7,30.4,31.9,30.4z"/>
	<path class="st0" d="M16.7,15c5,0,10.1,0,15.1,0c0.3,0,0.5,0.1,0.7,0.3c0.2,0.2,0.1,0.5,0,0.7c-0.3,0.5-0.8,0.7-1.5,0.7
		c-2.6,0-5.2,0-7.9,0c-6.8,0-13.7,0-20.5,0c-0.5,0-1-0.1-1.4-0.4c-0.3-0.2-0.4-0.4-0.4-0.7S1,15,1.4,15c0.1,0,0.2,0,0.3,0
		C6.6,15,11.7,15,16.7,15z"/>
	<path class="st0" d="M24,26.8c0.5-0.5,1-1,1.4-1.5c0.3,0.2,0.5,0.4,0.7,0.5c0.8,0.5,1.6,0.8,2.6,0.7c0.3,0,0.6-0.1,0.8-0.2
		c0.4-0.1,0.6-0.4,0.6-0.8s-0.2-0.7-0.6-0.8c-0.6-0.2-1.3-0.4-1.9-0.6c-0.7-0.2-1.4-0.4-2-0.8c-0.9-0.6-1.2-1.5-1.1-2.4
		c0.2-1.2,1-2,2.3-2.3c1.9-0.5,3.6-0.3,5.2,0.7c0.4,0.3,0.4,0.3,0.1,0.6c-0.3,0.3-0.6,0.7-0.9,1c-0.1,0.1-0.2,0.1-0.4,0
		c-0.7-0.5-1.6-0.8-2.5-0.7c-0.3,0-0.5,0.1-0.8,0.2c-0.7,0.4-0.7,1.1,0.1,1.4c0.4,0.2,0.9,0.3,1.3,0.4c0.6,0.2,1.2,0.3,1.8,0.5
		c0.9,0.3,1.6,0.9,1.9,1.8c0.4,1.4-0.4,2.7-1.8,3.3c-1.9,0.7-3.8,0.6-5.5-0.4C24.8,27.4,24.5,27.1,24,26.8z"/>
</g>
<text transform="matrix(1 0 0 1 39.6535 24.9875)" class="st0 st1 st2">R</text>
<text transform="matrix(1 0 0 1 73.4035 24.9875)" class="st0 st1 st2">M</text>
<text transform="matrix(1 0 0 1 112.591 24.9875)" class="st0 st1 st2">S</text>
</svg>
